<svg width="25" stroke="#767676" height="24" viewBox="0 0 25 24" fill="none"
    xmlns="http://www.w3.org/2000/svg">
    <g clip-path="url(#clip0_303_3661)">
        <path
            d="M12.5001 20.9996L20.8776 12.5021C21.7568 11.6229 22.2507 10.4305 22.2507 9.18714C22.2507 7.94378 21.7568 6.75133 20.8776 5.87214C19.9984 4.99295 18.806 4.49902 17.5626 4.49902C16.3193 4.49902 15.1268 4.99295 14.2476 5.87214L12.5001 7.49964L10.7526 5.87214C9.87344 4.99295 8.681 4.49902 7.43763 4.49902C6.19426 4.49902 5.00182 4.99295 4.12263 5.87214C3.24344 6.75133 2.74951 7.94378 2.74951 9.18714C2.74951 10.4305 3.24344 11.6229 4.12263 12.5021L12.5001 20.9996Z"
            stroke-width="2" stroke-linecap="round" stroke-linejoin="round" />
    </g>
    <defs>
        <clipPath id="clip0_303_3661">
            <rect width="24" height="24" fill="white" transform="translate(0.5)" />
        </clipPath>
    </defs>
</svg>