<svg width="25" height="24" viewBox="0 0 25 24" fill="none" xmlns="http://www.w3.org/2000/svg">
<g clip-path="url(#clip0_47_11686)">
<path d="M11 11.25C11 11.5467 10.912 11.8367 10.7472 12.0834C10.5824 12.33 10.3481 12.5223 10.074 12.6358C9.79994 12.7494 9.49834 12.7791 9.20736 12.7212C8.91639 12.6633 8.64912 12.5204 8.43934 12.3107C8.22956 12.1009 8.0867 11.8336 8.02882 11.5426C7.97094 11.2517 8.00065 10.9501 8.11418 10.676C8.22771 10.4019 8.41997 10.1676 8.66665 10.0028C8.91332 9.83797 9.20333 9.75 9.5 9.75C9.89782 9.75 10.2794 9.90804 10.5607 10.1893C10.842 10.4706 11 10.8522 11 11.25ZM22.25 5.25V18.75C22.25 19.1478 22.092 19.5294 21.8107 19.8107C21.5294 20.092 21.1478 20.25 20.75 20.25H4.25C3.85218 20.25 3.47064 20.092 3.18934 19.8107C2.90804 19.5294 2.75 19.1478 2.75 18.75V5.25C2.75 4.85218 2.90804 4.47064 3.18934 4.18934C3.47064 3.90804 3.85218 3.75 4.25 3.75H20.75C21.1478 3.75 21.5294 3.90804 21.8107 4.18934C22.092 4.47064 22.25 4.85218 22.25 5.25ZM13.2266 15.5625C12.9839 14.6563 12.4084 13.875 11.615 13.3744C12.0363 12.9555 12.3238 12.421 12.441 11.8386C12.5582 11.2562 12.4999 10.652 12.2733 10.1028C12.0468 9.55361 11.6623 9.08402 11.1686 8.75358C10.6748 8.42315 10.0941 8.24675 9.5 8.24675C8.9059 8.24675 8.32517 8.42315 7.83143 8.75358C7.3377 9.08402 6.95319 9.55361 6.72666 10.1028C6.50012 10.652 6.44175 11.2562 6.55896 11.8386C6.67616 12.421 6.96366 12.9555 7.385 13.3744C6.59211 13.8755 6.01681 14.6566 5.77344 15.5625C5.72371 15.7552 5.75257 15.9598 5.85366 16.1312C5.95475 16.3026 6.1198 16.4268 6.3125 16.4766C6.5052 16.5263 6.70975 16.4974 6.88118 16.3963C7.05259 16.2952 7.17683 16.1302 7.22656 15.9375C7.47406 14.9766 8.45094 14.25 9.5 14.25C10.5491 14.25 11.5269 14.9747 11.7734 15.9375C11.8232 16.1302 11.9474 16.2952 12.1188 16.3963C12.2902 16.4974 12.4948 16.5263 12.6875 16.4766C12.8802 16.4268 13.0452 16.3026 13.1463 16.1312C13.2474 15.9598 13.2763 15.7552 13.2266 15.5625ZM19.25 13.5C19.25 13.3011 19.171 13.1103 19.0303 12.9697C18.8897 12.829 18.6989 12.75 18.5 12.75H14.75C14.5511 12.75 14.3603 12.829 14.2197 12.9697C14.079 13.1103 14 13.3011 14 13.5C14 13.6989 14.079 13.8897 14.2197 14.0303C14.3603 14.171 14.5511 14.25 14.75 14.25H18.5C18.6989 14.25 18.8897 14.171 19.0303 14.0303C19.171 13.8897 19.25 13.6989 19.25 13.5ZM19.25 10.5C19.25 10.3011 19.171 10.1103 19.0303 9.96967C18.8897 9.82902 18.6989 9.75 18.5 9.75H14.75C14.5511 9.75 14.3603 9.82902 14.2197 9.96967C14.079 10.1103 14 10.3011 14 10.5C14 10.6989 14.079 10.8897 14.2197 11.0303C14.3603 11.171 14.5511 11.25 14.75 11.25H18.5C18.6989 11.25 18.8897 11.171 19.0303 11.0303C19.171 10.8897 19.25 10.6989 19.25 10.5Z" fill="#BABABA"/>
</g>
<defs>
<clipPath id="clip0_47_11686">
<rect width="24" height="24" fill="white" transform="translate(0.5)"/>
</clipPath>
</defs>
</svg>
