<svg width="25" height="24" viewBox="0 0 25 24" fill="none" xmlns="http://www.w3.org/2000/svg">
<g clip-path="url(#clip0_47_11702)">
<path d="M20.75 12.2021C20.7538 12.0671 20.7538 11.9321 20.75 11.7971L22.1488 10.0496C22.2221 9.9578 22.2729 9.85011 22.297 9.73514C22.3211 9.62018 22.3179 9.50116 22.2875 9.38768C22.0578 8.52588 21.7148 7.69836 21.2675 6.92674C21.2089 6.82579 21.1276 6.73992 21.0299 6.67595C20.9322 6.61199 20.821 6.5717 20.705 6.5583L18.4813 6.3108C18.3888 6.2133 18.295 6.11955 18.2 6.02955L17.9375 3.80018C17.924 3.68413 17.8836 3.57284 17.8195 3.47518C17.7554 3.37752 17.6693 3.29619 17.5682 3.23768C16.7966 2.79073 15.969 2.44835 15.1072 2.21955C14.9937 2.18924 14.8747 2.186 14.7598 2.2101C14.6448 2.2342 14.5371 2.28496 14.4454 2.3583L12.7025 3.74955C12.5675 3.74955 12.4325 3.74955 12.2975 3.74955L10.55 2.35362C10.4583 2.28027 10.3506 2.22951 10.2356 2.20541C10.1207 2.18131 10.0017 2.18455 9.88817 2.21487C9.02637 2.44458 8.19884 2.78757 7.42723 3.23487C7.32628 3.29349 7.2404 3.37486 7.17644 3.47251C7.11248 3.57017 7.07219 3.6814 7.05879 3.79737L6.81129 6.02487C6.71379 6.11799 6.62004 6.21174 6.53004 6.30612L4.30067 6.56206C4.18462 6.57556 4.07333 6.61598 3.97567 6.68011C3.87801 6.74424 3.79668 6.8303 3.73817 6.93143C3.29131 7.70315 2.94864 8.53066 2.71911 9.39237C2.68891 9.50592 2.68583 9.62498 2.71009 9.73995C2.73435 9.85491 2.78529 9.96257 2.85879 10.0542L4.25004 11.7971C4.25004 11.9321 4.25004 12.0671 4.25004 12.2021L2.85411 13.9496C2.78076 14.0413 2.73 14.149 2.7059 14.264C2.6818 14.3789 2.68504 14.4979 2.71536 14.6114C2.94507 15.4732 3.28806 16.3008 3.73536 17.0724C3.79397 17.1733 3.87535 17.2592 3.973 17.3232C4.07065 17.3871 4.18189 17.4274 4.29786 17.4408L6.52161 17.6883C6.61473 17.7858 6.70848 17.8796 6.80286 17.9696L7.06254 20.1989C7.07605 20.315 7.11647 20.4263 7.1806 20.5239C7.24473 20.6216 7.33079 20.7029 7.43192 20.7614C8.20363 21.2083 9.03114 21.551 9.89286 21.7805C10.0064 21.8107 10.1255 21.8138 10.2404 21.7895C10.3554 21.7652 10.4631 21.7143 10.5547 21.6408L12.2975 20.2496C12.4325 20.2533 12.5675 20.2533 12.7025 20.2496L14.45 21.6483C14.5418 21.7216 14.6495 21.7724 14.7645 21.7965C14.8794 21.8206 14.9984 21.8174 15.1119 21.7871C15.9739 21.5578 16.8014 21.2147 17.5729 20.7671C17.6738 20.7084 17.7597 20.6271 17.8236 20.5294C17.8876 20.4318 17.9279 20.3205 17.9413 20.2046L18.1888 17.9808C18.2863 17.8883 18.38 17.7946 18.47 17.6996L20.6994 17.4371C20.8155 17.4236 20.9268 17.3831 21.0244 17.319C21.1221 17.2549 21.2034 17.1688 21.2619 17.0677C21.7088 16.296 22.0515 15.4685 22.281 14.6067C22.3112 14.4932 22.3143 14.3741 22.29 14.2592C22.2657 14.1442 22.2148 14.0365 22.1413 13.9449L20.75 12.2021ZM12.5 15.7496C11.7584 15.7496 11.0333 15.5296 10.4167 15.1176C9.79997 14.7055 9.31932 14.1198 9.03549 13.4346C8.75167 12.7494 8.6774 11.9954 8.8221 11.268C8.96679 10.5405 9.32395 9.87235 9.84839 9.3479C10.3728 8.82346 11.041 8.4663 11.7685 8.32161C12.4959 8.17692 13.2499 8.25118 13.9351 8.53501C14.6203 8.81884 15.206 9.29948 15.6181 9.91617C16.0301 10.5329 16.25 11.2579 16.25 11.9996C16.25 12.9941 15.855 13.9479 15.1517 14.6512C14.4484 15.3545 13.4946 15.7496 12.5 15.7496Z" fill="#BABABA"/>
</g>
<defs>
<clipPath id="clip0_47_11702">
<rect width="24" height="24" fill="white" transform="translate(0.5)"/>
</clipPath>
</defs>
</svg>
